<svg width="256" height="256" viewBox="0 0 256 256" fill="none" xmlns="http://www.w3.org/2000/svg">
<g clip-path="url(#clip0_14_82)">
<path d="M103.188 73.7776C102.98 73.834 102.669 74.0171 102.257 74.3271C100.769 75.4455 99.6609 77.0402 99.0528 78.9375C98.5013 80.658 98.648 82.3121 99.5022 84.0044C99.88 84.7527 101.428 86.8729 102.169 87.6563C102.64 88.154 102.927 88.2454 103.046 87.9353C103.092 87.8165 102.883 87.4858 102.489 87.0498C101.678 86.1549 100.428 84.4682 100.103 83.8323C99.4374 82.5269 99.1968 81.3025 99.3807 80.1519C99.7207 78.023 101.307 75.5744 103.031 74.5171C103.31 74.3461 103.5 74.1324 103.5 73.9897C103.5 73.7917 103.395 73.7212 103.188 73.7776ZM126.478 30.0322C122.061 29.9035 118.056 30.7975 114.049 32.8066C108.046 35.8171 104.166 40.9604 103.363 46.9724C103.166 48.4465 103.291 51.4873 103.608 52.9375C104.501 57.0163 106.317 59.5788 110.405 62.5251C111.248 63.1325 112.5 64.0348 113.188 64.5303C115.644 66.3007 117.558 68.4555 118.435 70.4375C119.133 72.0149 119.401 73.2014 119.465 75C119.51 76.265 119.476 76.8947 119.331 77.5151C118.9 79.3486 117.958 80.8903 116.225 82.5986C115.107 83.7002 114.63 84.0876 110.799 87C106.195 90.4996 103.552 93.162 99.6951 98.186C97.0226 101.667 95.8998 103.65 95.2911 105.965C95.0122 107.026 94.9679 107.46 94.9571 109.25C94.9479 110.761 95.0034 111.606 95.1643 112.409C95.4494 113.831 96.039 115.626 96.502 116.481C96.8889 117.195 96.8877 117.375 96.4956 117.375C96.3638 117.375 95.2737 117.57 94.0733 117.809C85.1068 119.59 80.0971 121.744 78.9148 124.327C78.2455 125.789 78.8983 127.208 80.7998 128.424C81.4681 128.852 81.4905 128.883 81.3601 129.216C81.2665 129.455 81.2512 130.582 81.3111 132.844C81.3761 135.302 81.3615 136.125 81.2527 136.125C81.1729 136.125 79.6911 135.595 77.96 134.948C72.0368 132.734 71.3102 132.48 69.625 132.044C66.6213 131.267 64.01 131.358 62.0293 132.307C59.6257 133.459 58.5236 136.84 59.7437 139.318C60.9282 141.724 63.9177 143.559 71.25 146.379C75.0874 147.855 77.4865 149.255 78.2598 150.471C78.4666 150.797 78.8659 151.794 79.1472 152.688C79.7786 154.694 80.2548 155.623 80.9773 156.259C81.2842 156.529 81.5745 156.75 81.6223 156.75C81.7208 156.75 81.8385 163.624 82.0017 178.875C82.1743 194.995 82.3775 198.684 83.3306 203C84.2031 206.951 85.9508 210.718 88.2305 213.563C89.0478 214.582 90.8446 216.605 91.9104 217.706C92.5445 218.36 92.6199 218.485 92.4209 218.548C91.3586 218.884 85.6948 218.929 42.9375 218.933C-0.977595 218.938 0.0223886 218.902 0.0223886 219.152C0.0223886 219.4 -0.953982 219.438 11.125 219.513C30.9832 219.636 76.6607 219.628 83.875 219.5C91.8482 219.359 93.5 219.227 93.5 218.727C93.5 218.651 93.2891 218.329 93.0313 218.013C92.5695 217.446 92.5682 217.441 92.9375 217.68C94.3968 218.624 95.0335 218.961 96.5132 219.573C102.484 222.044 112.983 224.025 123.938 224.748C125.038 224.82 126.191 224.9 126.5 224.924C126.809 224.949 129.93 225.025 133.608 225.006C140.517 224.971 143.166 224.778 147.938 224.245C153.721 223.598 157.194 223.054 161.816 221.189C162.974 220.722 164.446 219.861 165.664 219.027C166.561 218.414 167.649 217.283 167.649 217.283V217.586C167.649 217.773 167.758 217.948 167.931 218.041C168.444 218.317 170.999 218.195 210.259 218.331C231.502 218.404 250.051 218.5 251.477 218.543L256.134 218.55V218.284L256.099 217.875L239.29 217.793C231.16 217.748 212.752 217.677 198.384 217.635C173.285 217.562 168.502 217.668 168.333 217.499C168.166 217.332 168.857 216.367 169.848 215.063C171.089 213.428 171.048 213.659 172.581 211.001C174.33 207.97 175.099 204.937 175.56 200.907C175.994 197.102 176.036 195.113 176.09 175.685L176.143 156.308L176.611 156.352C177.648 156.451 178.66 155.911 179.117 155.015C179.452 154.359 179.586 153.784 179.878 151.75C180.184 149.618 180.472 148.888 181.335 148.044C182.578 146.829 184.322 145.865 192 142.148C194.109 141.128 194.994 140.526 196.25 139.259C197.659 137.838 198.066 137.047 198.054 135.75C198.048 135.098 197.963 134.603 197.774 134.125C197.475 133.369 196.704 132.288 196.313 132.074C196.175 131.999 195.794 131.694 195.465 131.397C193.451 129.578 190.663 129.621 185.431 131.55C183.289 132.34 177.398 134.802 177.218 134.982C177.046 135.154 177.218 135.375 177.522 135.375C177.663 135.375 179.108 134.819 180.733 134.14C187.142 131.462 189.491 130.735 191.75 130.73C192.949 130.727 193.768 130.954 194.584 131.515C195.726 132.3 196.167 133.227 195.87 134.219C195.49 135.487 193.713 137.228 191.383 138.615C190.165 139.34 189.932 139.539 190.059 139.745C190.234 140.028 190.907 139.841 192.369 139.103C194.318 138.118 195.517 137.056 196.183 135.725C196.426 135.239 196.629 134.694 196.634 134.514C196.639 134.335 196.684 134.081 196.736 133.95C196.817 133.743 196.855 133.768 197.033 134.143C197.339 134.788 197.523 135.746 197.437 136.253C197.233 137.462 195.53 139.387 193.671 140.51C193.09 140.861 191.675 141.598 190.526 142.148C180.515 146.94 179.845 147.504 179.259 151.633C179.003 153.44 178.748 154.434 178.407 154.963C177.996 155.599 176.127 156.064 176.124 155.531C176.123 155.411 176.087 155.102 176.045 154.844C175.971 154.399 175.985 154.375 176.302 154.375C177.676 154.375 178.563 152.614 178.82 149.375C178.935 147.918 178.736 146.8 178.01 144.839C176.942 141.955 176.611 138.435 176.81 132.09L176.903 129.117L177.259 128.933C177.786 128.66 178.839 127.56 179.146 126.962C179.92 125.449 179.114 123.601 177.077 122.218C174.736 120.628 169.308 118.831 163.438 117.702C160.323 117.104 153.744 116.168 150.094 115.805C149.63 115.759 149.251 115.685 149.251 115.642C149.251 115.598 149.65 115.028 150.137 114.375C150.931 113.309 151.766 112.126 154.532 108.151C155.942 106.124 156.468 104.325 156.241 102.303C156.038 100.492 155.489 99.273 153.991 97.3081C152.843 95.8031 152.442 95.0726 152.238 94.1216C151.801 92.0877 152.954 89.1037 154.854 87.3503C155.669 86.5973 155.728 86.491 155.452 86.2625C155.227 86.0753 154.407 86.7161 153.125 88.0823C151.834 89.4579 151.239 90.2564 150.571 91.5127C149.853 92.8619 149.5 94.2071 149.5 95.5881C149.5 96.9711 149.763 97.9567 150.513 99.3855C152.519 103.208 152.89 104.272 152.908 106.25C152.915 106.903 152.847 107.747 152.758 108.125C152.504 109.202 151.732 110.706 150.773 111.993C150.289 112.642 149.566 113.727 149.166 114.404L148.438 115.635L147.688 115.566C144.923 115.312 138.859 114.977 134.938 114.861C132.394 114.786 130.28 114.688 130.241 114.643C130.202 114.599 130.009 114.169 129.812 113.688C129.614 113.206 128.965 111.772 128.368 110.5C126.505 106.531 126.096 105.009 126.084 102C126.066 97.5822 127.295 94.6298 130.559 91.25C134.761 86.9003 136.727 84.2059 138.634 80.189C140.433 76.3968 141.387 71.8378 141.025 68.7544C140.577 64.9353 138.324 61.286 135.581 59.9363C132.85 58.5928 129.005 58.9871 127.65 60.7498C127.375 61.1075 127.25 61.3951 127.275 61.6121C127.331 62.0978 127.554 62.0089 128.02 61.3152C128.514 60.5786 129.132 60.2022 130.275 59.9412C132.008 59.5452 133.984 59.7723 135.426 60.5332C136.418 61.0565 137.906 62.5452 138.675 63.7832C140.69 67.027 141 70.6065 139.694 75.5601C139.194 77.4539 138.687 78.7589 137.647 80.8247C135.925 84.2439 134.131 86.6451 130.39 90.5361C128.215 92.7979 127.195 94.2873 126.435 96.3059C125.369 99.1409 125.149 102.905 125.882 105.777C126.233 107.153 126.758 108.521 127.739 110.618C128.813 112.915 129.548 114.621 129.485 114.674C129.459 114.696 126.85 114.779 123.688 114.857C114.874 115.076 107.74 115.658 100.375 116.76C99.4469 116.899 98.4304 117.044 98.116 117.084L97.5445 117.155L97.0874 116.229C95.4279 112.871 95.0459 108.745 96.0884 105.44C96.7309 103.404 97.8616 101.543 100.572 98.0625C104.531 92.9801 107.034 90.5694 113 86.0945C117.071 83.041 118.731 81.1582 119.674 78.5242C120.05 77.4736 120.062 77.3708 120.053 75.4375C120.046 73.8048 119.995 73.2609 119.779 72.4753C118.697 68.5496 116.934 66.3832 111.938 62.8384C110.425 61.7653 108.769 60.5048 108.258 60.0374C106.039 58.0089 104.602 55.2638 104.059 52.0129C103.896 51.0397 103.86 50.2647 103.905 48.7141C103.989 45.8424 104.396 44.1937 105.624 41.751C108.421 36.1894 114.203 32.2927 121.688 30.9255C123.169 30.655 127.157 30.5478 128.527 30.7417C133.425 31.4347 137.439 34.0134 139.187 37.5881C140.136 39.5299 140.454 42.4213 139.945 44.478C139.786 45.1222 139.758 45.4328 139.851 45.5259C140.325 46.0004 140.643 44.8421 140.714 42.375C140.762 40.736 140.736 40.4435 140.447 39.3191C139.605 36.0479 137.42 33.4821 134.063 31.8215C131.483 30.5455 129.706 30.1263 126.478 30.0322ZM149.132 53.7756C147.935 53.8359 147.25 54.1007 147.25 54.5032C147.25 54.7987 147.443 54.8132 148.043 54.5625C148.699 54.2887 150.146 54.3162 150.724 54.6135C152.45 55.5015 153.381 58.6742 152.834 61.8042C152.727 62.4184 152.669 62.9699 152.706 63.0298C152.743 63.0897 152.867 63.1209 152.981 63.0991C153.313 63.0356 153.516 61.9646 153.534 60.1875C153.553 58.3153 153.396 57.438 152.816 56.1753C152.299 55.0477 151.671 54.3544 150.849 54.0007C150.299 53.7643 150.038 53.73 149.132 53.7756ZM152.077 90.2856C152.105 90.3133 152.048 90.5631 151.95 90.8406C151.852 91.1181 151.706 91.7797 151.625 92.3108C151.344 94.1661 151.792 95.4868 153.429 97.625C155.14 99.8589 155.649 101.131 155.657 103.188C155.662 104.686 155.344 105.742 154.434 107.237C154.116 107.76 153.701 108.371 153.512 108.595L153.167 109.003L153.345 108.158C153.467 107.581 153.504 106.856 153.463 105.875C153.383 103.979 153.04 102.918 151.624 100.188C150.365 97.7624 150.094 96.9562 150.087 95.6294C150.081 94.5114 150.28 93.5992 150.762 92.5234C151.159 91.6396 152 90.2083 152.077 90.2856ZM130.549 115.41C130.749 115.209 144.667 115.858 147.468 116.199C148.099 116.276 148.12 116.29 148.044 116.608C148.001 116.789 147.915 117.036 147.853 117.156C147.792 117.277 147.645 117.367 147.527 117.357C147.409 117.348 146.863 117.296 146.313 117.242C143.939 117.009 138.271 116.717 134.698 116.643L130.833 116.563L130.653 116.023C130.555 115.727 130.508 115.451 130.549 115.41ZM129.8 115.438L129.98 115.909C130.08 116.168 130.136 116.406 130.105 116.437C130.074 116.468 127.689 116.551 124.806 116.622C115.954 116.841 110.398 117.248 101.7 118.319C100.332 118.487 99.0947 118.625 98.9502 118.625C98.7998 118.625 98.5383 118.438 98.3384 118.188C98.1464 117.947 98.0058 117.75 98.0259 117.75C98.046 117.75 98.5407 117.665 99.125 117.562C100.492 117.319 106.493 116.563 109 116.317C114.382 115.789 119.936 115.505 125.681 115.466L129.8 115.438ZM149.229 116.376C149.831 116.377 154.588 116.93 156.813 117.257C165.569 118.543 171.058 119.933 175.063 121.879C177.572 123.099 178.627 124.139 178.725 125.489C178.789 126.38 178.497 127.017 177.649 127.831L177.063 128.394L177 127.479C176.95 126.745 176.895 126.557 176.723 126.524C176.605 126.502 175.977 126.801 175.327 127.189C173.981 127.992 172.86 128.454 170.625 129.128C164.758 130.897 153.664 132.339 141.313 132.94C136.555 133.171 126.364 133.269 122.313 133.123C107.438 132.585 95.3143 130.965 87.6836 128.497C85.8828 127.914 84.0725 127.044 83.6131 126.54C83.3445 126.245 83.3391 126.22 83.5625 126.303C86.109 127.256 102.168 129.455 111.875 130.182C113.284 130.287 115.169 130.429 116.063 130.498C121.486 130.914 130.661 131.243 136.977 131.248C142.613 131.251 150.942 130.913 155.438 130.499C162.17 129.877 163.883 129.705 166.063 129.431C171.012 128.809 172.582 128.463 174.226 127.637C175.545 126.974 176.25 126.109 176.25 125.154C176.25 124.629 175.667 123.554 175.145 123.116C173.079 121.385 166.665 119.675 157.625 118.444C154.81 118.061 149.85 117.501 149.25 117.498C148.566 117.495 148.443 117.364 148.62 116.827C148.756 116.416 148.812 116.375 149.229 116.376ZM97.3106 117.859L97.5921 118.211C97.7469 118.404 97.856 118.617 97.8343 118.683C97.8125 118.749 96.9272 118.931 95.867 119.088C90.6768 119.853 86.0849 121.077 84.1267 122.218C83.4312 122.624 82.4119 123.566 82.1765 124.021C81.8658 124.622 81.9553 125.257 82.4688 126.095C82.7266 126.517 83.1625 127.038 83.4375 127.254C85.3884 128.789 92.0348 130.666 99.5625 131.809C106.174 132.813 114.45 133.499 123.198 133.769C136.628 134.183 153.875 133.103 164.625 131.175C170.142 130.186 173.438 129.161 175.816 127.693L176.319 127.383L176.253 128.035L176.188 128.688L175.188 129.211C174.638 129.498 173.344 130.018 172.313 130.365C165.378 132.702 154.709 134.204 140.25 134.88C136.529 135.054 126.171 135.125 122.625 135.002C112.583 134.652 103.259 133.717 95.6875 132.302C85.0292 130.31 79.2646 127.858 79.2539 125.313C79.2512 124.661 79.928 123.677 80.8487 122.995C83.3723 121.124 89.0757 119.264 95.8116 118.115L97.3106 117.859ZM82.4007 129.308C82.4285 129.28 82.9546 129.474 83.5696 129.739C88.4062 131.824 98.0721 133.726 109.313 134.805C123.484 136.165 140.842 135.999 155.25 134.366C164.226 133.349 171.939 131.618 175.469 129.828L176.125 129.496L176.126 134.029C176.127 136.522 176.163 138.858 176.206 139.219C176.278 139.813 176.262 139.875 176.041 139.875C174.817 139.875 173.548 144.267 173.296 149.375C173.136 152.64 173.822 155.099 175.128 155.938L175.518 156.187L175.46 175.438C175.403 194.609 175.349 197.198 174.935 200.792C174.306 206.261 172.893 209.257 170.328 213.113C169.142 214.896 167.664 216.456 166.047 217.833C165.089 218.65 164.031 219.249 162.882 219.894C161.745 220.531 160.263 221.157 159.526 221.376C153.704 223.107 148.793 223.688 139.813 224.247C130.273 224.841 120.438 224.178 111.374 222.683C102.929 221.29 98.4068 219.972 93.8821 217.586C92.1075 216.65 91.854 216.472 90.7493 215.378C87.4521 212.113 85.2856 208.26 84.1401 203.625C83.0136 199.067 82.8035 195.495 82.6282 177.938C82.5671 171.819 82.4767 164.591 82.4273 161.875L82.3372 156.938L83.0298 156.922C84.4851 156.888 85.6184 155.852 86.0869 154.125C86.3891 153.011 86.3892 149.904 86.0869 148.25C85.5993 145.582 84.4549 142.815 83.4724 141.927C82.9479 141.453 82.6698 141.406 82.1096 141.696C81.7264 141.894 81.1292 142.941 81.1267 143.42C81.126 143.556 81.0608 143.625 80.9692 143.588C79.2349 142.883 78.3758 142.582 76.0063 141.849C74.4591 141.371 72.5731 140.753 71.8154 140.476C70.1881 139.882 67.5686 138.566 66.6909 137.902C66.0387 137.409 65.4568 136.671 65.5723 136.485C65.6095 136.424 65.9191 136.375 66.26 136.375C68.5909 136.375 75.2968 138.857 78.6587 140.963C79.7411 141.642 80.1895 141.741 80.1021 141.282C79.9664 140.57 74.7917 138.055 70.563 136.646C68.7141 136.03 67.3876 135.75 66.3181 135.75C65.8683 135.75 65.5005 135.706 65.5005 135.653C65.5005 135.438 65.9134 134.987 66.2874 134.793C66.7664 134.546 67.9931 134.525 69.063 134.747C70.0136 134.943 72.1254 135.714 74.0813 136.579C74.9165 136.948 75.6841 137.25 75.7869 137.25C76.1151 137.25 76.1365 136.888 75.8206 136.681C75.2943 136.336 72.4398 135.148 70.9175 134.64C68.1069 133.702 66.4866 133.686 65.489 134.588C64.1858 135.765 64.6558 137.374 66.6907 138.7C68.7469 140.04 71.239 141.076 75.688 142.438C77.9404 143.127 81.0058 144.197 80.9988 144.291C80.9979 144.303 80.8818 144.847 80.741 145.5C80.3682 147.228 80.2733 150.359 80.552 151.734C80.9221 153.56 81.49 154.669 82.2588 155.067C83.1005 155.502 84.2946 154.661 84.6809 153.36C85.0842 152.002 84.8389 149.582 84.084 147.47C83.5778 146.054 82.9672 145.069 82.1963 144.424C81.68 143.993 81.6271 143.901 81.6997 143.564C81.821 143.002 82.2115 142.292 82.4502 142.2C82.8016 142.065 83.214 142.452 83.8037 143.469C84.9764 145.491 85.6649 148.382 85.6724 151.313C85.6787 153.799 85.3515 154.964 84.4346 155.72C83.6289 156.384 82.6825 156.537 81.8862 156.13C80.9548 155.655 80.5917 155.057 79.8599 152.789C79.2204 150.807 78.8878 150.136 78.156 149.354C77.1395 148.267 74.7079 146.962 71.438 145.748C68.8901 144.802 67.1379 144.054 65.4189 143.178C63.4952 142.198 62.6583 141.642 61.5764 140.625C60.2781 139.404 59.3917 137.449 60.0579 135.809C60.7812 134.028 60.8464 133.813 62.1067 133.01C63.2675 132.27 64.2542 132.201 66.063 132.197C67.5015 132.194 67.8745 132.241 69.313 132.61C70.6619 132.955 77.3068 135.322 80.3767 136.552L81.188 136.877L81.2271 138.032C81.2835 139.704 81.377 140.063 81.7556 140.063C82.0305 140.063 82.0751 139.99 82.1787 139.379C82.2556 138.926 82.2451 138.252 82.1475 137.374C82.0666 136.646 82.0005 134.718 82.0005 133.088V130.125L82.7297 130.662C83.1308 130.958 83.7833 131.363 84.1797 131.564C85.1132 132.036 85.8894 132.91 86.5056 134.184C87.2571 135.736 87.6297 137.453 88.012 141.125C88.2785 143.686 88.2959 156.317 88.0456 165.574C87.7394 176.899 87.7364 188.515 88.0386 192.211C88.3037 195.454 88.5449 197.333 88.958 199.375C89.7412 203.247 91.1573 206.807 93.061 209.688C94.0749 211.223 96.1435 213.272 97.3755 213.963C98.5276 214.609 100.664 215.335 101.975 215.526C103.669 215.773 103.739 215.57 102.517 213.95C100.327 211.046 98.8843 207.879 97.8132 203.626C95.9846 196.365 95.6022 186.543 96.0635 158.666C96.3912 138.858 96.2443 136.694 94.4399 134.765C93.6611 133.933 92.664 133.477 90.3069 132.876C87.0055 132.035 85.9467 131.66 85.125 131.042C84.7221 130.739 83.9698 130.296 83.4534 130.058C82.5855 129.657 82.2737 129.435 82.4007 129.308ZM86.3047 132.375C86.3266 132.375 86.5568 132.464 86.8162 132.572C87.0756 132.68 88.3826 133.048 89.7207 133.39C91.0589 133.731 92.4305 134.151 92.7688 134.322C94.4539 135.176 95.0299 136.287 95.3921 139.385C95.6016 141.176 95.6036 149.953 95.397 161.563C94.9602 186.109 95.3953 196.602 97.1389 203.563C98.2243 207.895 99.9646 211.757 102.02 214.393C102.215 214.644 102.375 214.883 102.375 214.924C102.375 215.034 102.317 215.024 100.866 214.644C96.8648 213.599 94.3585 211.282 91.9939 206.443C89.6997 201.749 88.8327 197.224 88.479 188.102C88.3287 184.225 88.3682 180.607 88.7637 162.062C88.9359 153.987 88.8437 143.138 88.5813 140.625C88.1926 136.902 87.7854 135.24 86.8123 133.406C86.5113 132.839 86.2829 132.375 86.3047 132.375ZM189.813 133.198C188.239 133.202 186.222 133.998 182.001 136.281C178.381 138.238 177.875 138.61 177.875 139.308C177.875 139.805 178.189 140.25 178.538 140.25C178.689 140.25 180.247 139.53 182 138.65C187.362 135.961 189.268 135.258 190.717 135.437L191.372 135.518L191.189 135.871C190.648 136.919 186.356 138.936 181.838 140.266C180.655 140.614 179.616 140.921 179.528 140.947C179.283 141.02 179.192 141.387 179.388 141.51C179.484 141.57 179.647 141.596 179.75 141.567C186.758 139.606 191.249 137.51 192.047 135.828C192.719 134.412 191.685 133.195 189.813 133.198ZM129.915 117.175C130.343 117.255 130.363 117.284 130.545 118.098C130.749 119.004 130.984 120.98 131.033 122.188C131.059 122.844 131.094 122.938 131.313 122.938C131.551 122.938 131.561 122.864 131.532 121.388C131.505 120.002 131.253 117.978 131.038 117.417C130.964 117.225 131.248 117.215 134.823 117.29C136.948 117.334 139.616 117.426 140.75 117.495C145.523 117.784 147.077 117.889 147.318 117.939C147.552 117.987 147.574 118.085 147.575 119.09C147.575 119.713 147.667 120.539 147.786 121C148.008 121.854 149.098 124.147 149.313 124.209C149.381 124.23 149.518 124.195 149.616 124.133C149.763 124.04 149.679 123.788 149.147 122.729C148.466 121.373 148.125 120.136 148.136 119.063C148.148 117.971 147.994 118.02 150.644 118.263C159.321 119.059 168.45 120.757 172.21 122.275C174.112 123.043 175.379 124.018 175.535 124.835C175.767 126.05 174.46 127.137 172.012 127.763C168.284 128.716 156.678 129.954 147.5 130.377C144.668 130.507 132.993 130.626 130.438 130.551C120.248 130.249 109.675 129.504 101.25 128.494C92.9572 127.5 84.9998 126.221 83.4434 125.627C82.6723 125.333 82.7178 125.228 82.6371 124.71C82.5864 124.385 82.9043 124.073 83.1308 123.821C83.6402 123.254 84.1001 122.959 85 122.502C87.0515 121.461 91.3959 120.391 96.9871 119.549C98.3641 119.342 98.3959 119.36 98.5808 119.566C99.1361 120.186 99.4801 120.603 99.8863 121.266C100.495 122.163 101.291 123.823 101.497 124.625C101.577 124.934 101.696 125.398 101.763 125.656C101.852 125.997 101.952 126.125 102.13 126.125C102.438 126.125 102.45 125.767 102.179 124.706C101.973 123.898 100.942 121.621 100.506 121.008C100.181 120.499 99.8795 119.981 99.4414 119.547C99.3383 119.425 99.285 119.298 99.3028 119.281C99.3519 119.231 101.83 118.937 106.813 118.389C111.019 117.926 112.439 117.811 117.77 117.504C121.134 117.31 129.435 117.085 129.915 117.175ZM189.25 133.884C189.694 133.817 190.066 133.82 190.383 133.889C190.971 134.015 191.5 134.381 191.5 134.661C191.5 134.768 191.162 134.814 190.344 134.818C189.504 134.822 188.931 134.902 188.25 135.11C187.068 135.473 183.585 137.062 180.797 138.512C179.62 139.124 178.621 139.625 178.578 139.625C178.372 139.625 178.542 139.26 178.906 138.92C179.425 138.435 180.024 138.079 182.938 136.525C185.955 134.916 187.921 134.084 189.25 133.884ZM176.458 141.183C176.481 141.215 176.496 141.317 176.498 141.5C176.508 142.24 176.847 143.601 177.365 144.988C178.088 146.924 178.161 147.288 178.148 148.886C178.132 150.968 177.759 152.484 177.079 153.23C176.662 153.689 176.426 153.775 176.232 153.541C176.002 153.263 175.911 144.117 176.123 142.526C176.242 141.63 176.388 141.089 176.458 141.183ZM175.533 141.375C175.558 141.375 175.509 141.783 175.424 142.281C175.227 143.43 174.875 148.256 174.875 149.805C174.875 151.22 175.07 152.72 175.354 153.494C175.473 153.818 175.546 154.318 175.524 154.656C175.503 154.983 175.433 155.25 175.369 155.25C175.154 155.25 174.5 154.218 174.306 153.573C174.201 153.224 174.051 152.342 173.974 151.614C173.717 149.198 174.398 143.753 175.167 142.072C175.343 141.689 175.507 141.375 175.533 141.375ZM81.5681 144.765C81.6906 144.643 82.4101 145.464 82.8142 146.188C83.7619 147.884 84.1702 149.472 84.18 151.5C84.1867 152.887 84.1562 153.121 83.908 153.585C83.7542 153.873 83.5026 154.197 83.3489 154.304C82.712 154.75 82.1774 154.436 81.6929 153.331C81.17 152.139 81.0621 151.428 81.0721 149.25C81.0804 147.418 81.3496 144.984 81.5681 144.765Z" fill="#121212"/>
</g>
<defs>
<clipPath id="clip0_14_82">
<rect width="256" height="256" fill="white"/>
</clipPath>
</defs>
</svg>
